<?xml version="1.0" encoding="utf-8"?>
<!-- Generator: Adobe Illustrator 17.1.0, SVG Export Plug-In . SVG Version: 6.00 Build 0)  -->
<!DOCTYPE svg PUBLIC "-//W3C//DTD SVG 1.1//EN" "http://www.w3.org/Graphics/SVG/1.1/DTD/svg11.dtd">
<svg version="1.1" id="Layer_1" xmlns="http://www.w3.org/2000/svg" xmlns:xlink="http://www.w3.org/1999/xlink" x="0px" y="0px"
	 viewBox="0 0 203.7 202.8" enable-background="new 0 0 203.7 202.8" xml:space="preserve">
<g>
	<path id="N" d="M148,202.8c0-19.5,0-38.9,0-58.4c0-1.1,0-1.1,1.1-1.1c4.1,0,8.2,0,12.2,0c0.5,0,0.9,0.2,1.2,0.6
		c0.8,1.1,26.5,34.8,27.1,35.5c0,0.1,0.1,0.1,0.2,0.2c0-0.1,0.1-0.1,0.1-0.2c0-0.3,0-0.6,0-1c0-11.3,0-22.5,0-33.8
		c0-0.3,0-0.6,0-0.8c0-0.4,0.2-0.4,0.5-0.4c2.4,0,4.8,0,7.2,0c2,0,4,0,6,0c0.2,0.4,0.1,0.8,0.1,1.2c0,19.1,0,38.1,0,57.2
		c0,0.4,0.1,0.8-0.1,1.2c-4.6,0-9.1,0-13.7,0c-0.5-0.3-0.9-0.6-1.3-1.1c-8.5-11.1-17.1-22.2-25.7-33.4c-0.2-0.3-0.5-0.6-0.6-1
		c0,0.4,0.1,0.8,0.1,1.2c0,10.9,0,21.8,0,32.7c0,0.5,0.1,1.1-0.3,1.5H148z"/>
	<path id="D" fill="#83107E" d="M203.7,78.7v45.8l-7.2,6.6c0,0-0.4,0.1-0.7,0.1c-2.4,0-7.2,0-7.2,0s-10.2,0-15.2,0l0-13.2
		c4.8,0,14.4,0,14.4,0l0.8,0l0.3-0.3l0-0.7c0,0,0-20.2,0-30.4c0-0.2,0-0.5,0-0.7c0-0.3-0.1-0.3-0.4-0.3c-0.2,0-0.4,0-0.6,0
		c-8.1,0-16.2,0-24.2,0c-0.2,0-0.5,0-0.7,0c-0.1,0-0.2,0.2-0.2,0.3c0,0.3,0,0.6,0,1c0,14.4,0,28.7,0,43.1c0,0.3,0,0.6,0,1
		c0,0.3-0.1,0.3-0.4,0.3c-1.6,0-3.2,0-4.8,0c-2.8,0-5.7,0-8.5,0c-0.7,0-0.7,0-0.7-0.8c0-0.1,0-0.2,0-0.4c0-19,0-57.5,0-57.8
		c0-0.3,0.1-0.3,0.4-0.3c0.2,0,31.4,0,46.8,0c0.7,0,1.2,0.1,1.7,0.7c0.5,0.6,1.2,1.1,1.8,1.6c0.6,0.5,1.1,1.1,1.8,1.5
		c0.5,0.3,0.9,0.9,1.4,1.3C202.6,77.7,203.2,78.2,203.7,78.7z"/>
	<path id="T" d="M203,0.8l0,13.1l-20,0.1l-0.1,45.6h-13.4c0,0-0.2-45.4-0.2-45.7c0-0.3-19.6,0-19.6,0l0-13.4L203,0.8z"/>
	<polygon id="portal_x5F_outer" fill="#020D11" points="135.1,202.8 0,202.8 0,0 135.1,0 	"/>
	<polygon id="portal_x5F_inner" fill="#83107E" points="26.5,28.4 108.8,28.5 108.8,174.2 26.4,174.4 	"/>
</g>
</svg>
