<?xml version="1.0" encoding="utf-8"?>
<!-- Generator: Adobe Illustrator 17.1.0, SVG Export Plug-In . SVG Version: 6.00 Build 0)  -->
<!DOCTYPE svg PUBLIC "-//W3C//DTD SVG 1.1//EN" "http://www.w3.org/Graphics/SVG/1.1/DTD/svg11.dtd">
<svg version="1.1" id="Layer_1" xmlns="http://www.w3.org/2000/svg" xmlns:xlink="http://www.w3.org/1999/xlink" x="0px" y="0px"
	 viewBox="0 0 100 100" enable-background="new 0 0 100 100" xml:space="preserve">
<circle id="background" fill="#231F20" cx="50" cy="50" r="50"/>
<g id="portal">
	<g id="b0">
		<circle fill="#231F20" stroke="#231F20" stroke-width="2" stroke-miterlimit="10" cx="48.4" cy="49.9" r="0.1"/>
		<circle fill="#231F20" stroke="#231F20" stroke-width="2" stroke-miterlimit="10" cx="48.2" cy="50.5" r="0.1"/>
		<circle fill="#231F20" stroke="#231F20" stroke-width="2" stroke-miterlimit="10" cx="48.9" cy="49.4" r="0.1"/>
		<circle fill="#231F20" stroke="#231F20" stroke-width="2" stroke-miterlimit="10" cx="47.9" cy="50.1" r="0.1"/>
		<circle fill="#231F20" stroke="#231F20" stroke-width="2" stroke-miterlimit="10" cx="48.9" cy="50.6" r="0.1"/>
		<circle fill="#231F20" stroke="#231F20" stroke-width="2" stroke-miterlimit="10" cx="49" cy="50.1" r="0.1"/>
	</g>
	<g id="b1">
		<circle fill="#251F23" stroke="#251F23" stroke-width="2" stroke-miterlimit="10" cx="48.3" cy="49.9" r="0.3"/>
		<circle fill="#251F23" stroke="#251F23" stroke-width="2" stroke-miterlimit="10" cx="47.9" cy="50.9" r="0.3"/>
		<circle fill="#251F23" stroke="#251F23" stroke-width="2" stroke-miterlimit="10" cx="49.2" cy="48.9" r="0.3"/>
		<circle fill="#251F23" stroke="#251F23" stroke-width="2" stroke-miterlimit="10" cx="47.3" cy="50.2" r="0.2"/>
		<circle fill="#251F23" stroke="#251F23" stroke-width="2" stroke-miterlimit="10" cx="49.3" cy="51.2" r="0.2"/>
		<circle fill="#251F23" stroke="#251F23" stroke-width="2" stroke-miterlimit="10" cx="49.5" cy="50.2" r="0.3"/>
	</g>
	<g id="b2">
		<circle fill="#281F26" stroke="#281F26" stroke-width="2" stroke-miterlimit="10" cx="48.2" cy="49.8" r="0.4"/>
		<circle fill="#281F26" stroke="#281F26" stroke-width="2" stroke-miterlimit="10" cx="47.6" cy="51.4" r="0.4"/>
		<circle fill="#281F26" stroke="#281F26" stroke-width="2" stroke-miterlimit="10" cx="49.5" cy="48.3" r="0.4"/>
		<circle fill="#281F26" stroke="#281F26" stroke-width="2" stroke-miterlimit="10" cx="46.7" cy="50.2" r="0.3"/>
		<circle fill="#281F26" stroke="#281F26" stroke-width="2" stroke-miterlimit="10" cx="49.6" cy="51.7" r="0.3"/>
		<circle fill="#281F26" stroke="#281F26" stroke-width="2" stroke-miterlimit="10" cx="49.9" cy="50.2" r="0.4"/>
	</g>
	<g id="b3">
		<circle fill="#2A1F28" stroke="#2A1F28" stroke-width="2" stroke-miterlimit="10" cx="48.1" cy="49.7" r="0.5"/>
		<circle fill="#2A1F28" stroke="#2A1F28" stroke-width="2" stroke-miterlimit="10" cx="47.3" cy="51.9" r="0.5"/>
		<circle fill="#2A1F28" stroke="#2A1F28" stroke-width="2" stroke-miterlimit="10" cx="49.7" cy="47.7" r="0.5"/>
		<circle fill="#2A1F28" stroke="#2A1F28" stroke-width="2" stroke-miterlimit="10" cx="46" cy="50.3" r="0.4"/>
		<circle fill="#2A1F28" stroke="#2A1F28" stroke-width="2" stroke-miterlimit="10" cx="50" cy="52.3" r="0.4"/>
		<circle fill="#2A1F28" stroke="#2A1F28" stroke-width="2" stroke-miterlimit="10" cx="50.4" cy="50.3" r="0.6"/>
	</g>
	<g id="b4">
		<circle fill="#2C202B" stroke="#2C202B" stroke-width="2" stroke-miterlimit="10" cx="47.9" cy="49.7" r="0.6"/>
		<circle fill="#2C202B" stroke="#2C202B" stroke-width="2" stroke-miterlimit="10" cx="46.9" cy="52.3" r="0.6"/>
		<circle fill="#2C202B" stroke="#2C202B" stroke-width="2" stroke-miterlimit="10" cx="50" cy="47.2" r="0.6"/>
		<circle fill="#2C202B" stroke="#2C202B" stroke-width="2" stroke-miterlimit="10" cx="45.4" cy="50.4" r="0.5"/>
		<circle fill="#2C202B" stroke="#2C202B" stroke-width="2" stroke-miterlimit="10" cx="50.3" cy="52.8" r="0.5"/>
		<circle fill="#2C202B" stroke="#2C202B" stroke-width="2" stroke-miterlimit="10" cx="50.8" cy="50.4" r="0.7"/>
	</g>
	<g id="b5">
		<circle fill="#2F202E" stroke="#2F202E" stroke-width="2" stroke-miterlimit="10" cx="47.8" cy="49.6" r="0.7"/>
		<circle fill="#2F202E" stroke="#2F202E" stroke-width="2" stroke-miterlimit="10" cx="46.6" cy="52.8" r="0.7"/>
		<circle fill="#2F202E" stroke="#2F202E" stroke-width="2" stroke-miterlimit="10" cx="50.3" cy="46.6" r="0.7"/>
		<circle fill="#2F202E" stroke="#2F202E" stroke-width="2" stroke-miterlimit="10" cx="44.8" cy="50.4" r="0.6"/>
		<circle fill="#2F202E" stroke="#2F202E" stroke-width="2" stroke-miterlimit="10" cx="50.7" cy="53.4" r="0.6"/>
		<circle fill="#2F202E" stroke="#2F202E" stroke-width="2" stroke-miterlimit="10" cx="51.3" cy="50.4" r="0.9"/>
	</g>
	<g id="b6">
		<circle fill="#312031" stroke="#312031" stroke-width="2" stroke-miterlimit="10" cx="47.7" cy="49.5" r="0.9"/>
		<circle fill="#312031" stroke="#312031" stroke-width="2" stroke-miterlimit="10" cx="46.3" cy="53.2" r="0.9"/>
		<circle fill="#312031" stroke="#312031" stroke-width="2" stroke-miterlimit="10" cx="50.6" cy="46" r="0.9"/>
		<circle fill="#312031" stroke="#312031" stroke-width="2" stroke-miterlimit="10" cx="44.1" cy="50.5" r="0.7"/>
		<circle fill="#312031" stroke="#312031" stroke-width="2" stroke-miterlimit="10" cx="51" cy="54" r="0.7"/>
		<circle fill="#312031" stroke="#312031" stroke-width="2" stroke-miterlimit="10" cx="51.7" cy="50.5" r="1"/>
	</g>
	<g id="b7">
		<circle fill="#332033" stroke="#332033" stroke-width="2" stroke-miterlimit="10" cx="47.6" cy="49.4" r="1"/>
		<circle fill="#332033" stroke="#332033" stroke-width="2" stroke-miterlimit="10" cx="46" cy="53.7" r="1"/>
		<circle fill="#332033" stroke="#332033" stroke-width="2" stroke-miterlimit="10" cx="50.9" cy="45.5" r="1"/>
		<circle fill="#332033" stroke="#332033" stroke-width="2" stroke-miterlimit="10" cx="43.5" cy="50.6" r="0.8"/>
		<circle fill="#332033" stroke="#332033" stroke-width="2" stroke-miterlimit="10" cx="51.4" cy="54.5" r="0.8"/>
		<circle fill="#332033" stroke="#332033" stroke-width="2" stroke-miterlimit="10" cx="52.2" cy="50.6" r="1.1"/>
	</g>
	<g id="b8">
		<circle fill="#362036" stroke="#362036" stroke-width="2" stroke-miterlimit="10" cx="47.4" cy="49.4" r="1.1"/>
		<circle fill="#362036" stroke="#362036" stroke-width="2" stroke-miterlimit="10" cx="45.6" cy="54.2" r="1.1"/>
		<circle fill="#362036" stroke="#362036" stroke-width="2" stroke-miterlimit="10" cx="51.2" cy="44.9" r="1.1"/>
		<circle fill="#362036" stroke="#362036" stroke-width="2" stroke-miterlimit="10" cx="42.8" cy="50.7" r="0.9"/>
		<circle fill="#362036" stroke="#362036" stroke-width="2" stroke-miterlimit="10" cx="51.7" cy="55.1" r="0.9"/>
		<circle fill="#362036" stroke="#362036" stroke-width="2" stroke-miterlimit="10" cx="52.6" cy="50.7" r="1.3"/>
	</g>
	<g id="b9">
		<circle fill="#382039" stroke="#382039" stroke-width="2" stroke-miterlimit="10" cx="47.3" cy="49.3" r="1.2"/>
		<circle fill="#382039" stroke="#382039" stroke-width="2" stroke-miterlimit="10" cx="45.3" cy="54.6" r="1.2"/>
		<circle fill="#382039" stroke="#382039" stroke-width="2" stroke-miterlimit="10" cx="51.5" cy="44.3" r="1.2"/>
		<circle fill="#382039" stroke="#382039" stroke-width="2" stroke-miterlimit="10" cx="42.2" cy="50.7" r="1"/>
		<circle fill="#382039" stroke="#382039" stroke-width="2" stroke-miterlimit="10" cx="52.1" cy="55.7" r="1"/>
		<circle fill="#382039" stroke="#382039" stroke-width="2" stroke-miterlimit="10" cx="53.1" cy="50.7" r="1.4"/>
	</g>
	<g id="b10">
		<circle fill="#3A213C" stroke="#3A213C" stroke-width="2" stroke-miterlimit="10" cx="47.2" cy="49.2" r="1.4"/>
		<circle fill="#3A213C" stroke="#3A213C" stroke-width="2" stroke-miterlimit="10" cx="45" cy="55.1" r="1.4"/>
		<circle fill="#3A213C" stroke="#3A213C" stroke-width="2" stroke-miterlimit="10" cx="51.8" cy="43.8" r="1.4"/>
		<circle fill="#3A213C" stroke="#3A213C" stroke-width="2" stroke-miterlimit="10" cx="41.6" cy="50.8" r="1.1"/>
		<circle fill="#3A213C" stroke="#3A213C" stroke-width="2" stroke-miterlimit="10" cx="52.4" cy="56.2" r="1.1"/>
		<circle fill="#3A213C" stroke="#3A213C" stroke-width="2" stroke-miterlimit="10" cx="53.6" cy="50.8" r="1.6"/>
	</g>
	<g id="b11">
		<circle fill="#3D213E" stroke="#3D213E" stroke-width="2" stroke-miterlimit="10" cx="47.1" cy="49.2" r="1.5"/>
		<circle fill="#3D213E" stroke="#3D213E" stroke-width="2" stroke-miterlimit="10" cx="44.6" cy="55.6" r="1.5"/>
		<circle fill="#3D213E" stroke="#3D213E" stroke-width="2" stroke-miterlimit="10" cx="52.1" cy="43.2" r="1.5"/>
		<circle fill="#3D213E" stroke="#3D213E" stroke-width="2" stroke-miterlimit="10" cx="40.9" cy="50.9" r="1.2"/>
		<circle fill="#3D213E" stroke="#3D213E" stroke-width="2" stroke-miterlimit="10" cx="52.8" cy="56.8" r="1.2"/>
		<circle fill="#3D213E" stroke="#3D213E" stroke-width="2" stroke-miterlimit="10" cx="54" cy="50.9" r="1.7"/>
	</g>
	<g id="b12">
		<circle fill="#3F2141" stroke="#3F2141" stroke-width="2" stroke-miterlimit="10" cx="47" cy="49.1" r="1.6"/>
		<circle fill="#3F2141" stroke="#3F2141" stroke-width="2" stroke-miterlimit="10" cx="44.3" cy="56" r="1.6"/>
		<circle fill="#3F2141" stroke="#3F2141" stroke-width="2" stroke-miterlimit="10" cx="52.4" cy="42.6" r="1.6"/>
		<circle fill="#3F2141" stroke="#3F2141" stroke-width="2" stroke-miterlimit="10" cx="40.3" cy="50.9" r="1.3"/>
		<circle fill="#3F2141" stroke="#3F2141" stroke-width="2" stroke-miterlimit="10" cx="53.1" cy="57.4" r="1.3"/>
		<circle fill="#3F2141" stroke="#3F2141" stroke-width="2" stroke-miterlimit="10" cx="54.5" cy="50.9" r="1.8"/>
	</g>
	<g id="b13">
		<circle fill="#412144" stroke="#412144" stroke-width="2" stroke-miterlimit="10" cx="46.8" cy="49" r="1.7"/>
		<circle fill="#412144" stroke="#412144" stroke-width="2" stroke-miterlimit="10" cx="44" cy="56.5" r="1.7"/>
		<circle fill="#412144" stroke="#412144" stroke-width="2" stroke-miterlimit="10" cx="52.7" cy="42.1" r="1.7"/>
		<circle fill="#412144" stroke="#412144" stroke-width="2" stroke-miterlimit="10" cx="39.7" cy="51" r="1.4"/>
		<circle fill="#412144" stroke="#412144" stroke-width="2" stroke-miterlimit="10" cx="53.5" cy="57.9" r="1.4"/>
		<circle fill="#412144" stroke="#412144" stroke-width="2" stroke-miterlimit="10" cx="54.9" cy="51" r="2"/>
	</g>
	<g id="b14">
		<circle fill="#442147" stroke="#442147" stroke-width="2" stroke-miterlimit="10" cx="46.7" cy="49" r="1.9"/>
		<circle fill="#442147" stroke="#442147" stroke-width="2" stroke-miterlimit="10" cx="43.7" cy="56.9" r="1.9"/>
		<circle fill="#442147" stroke="#442147" stroke-width="2" stroke-miterlimit="10" cx="52.9" cy="41.5" r="1.9"/>
		<circle fill="#442147" stroke="#442147" stroke-width="2" stroke-miterlimit="10" cx="39" cy="51.1" r="1.6"/>
		<circle fill="#442147" stroke="#442147" stroke-width="2" stroke-miterlimit="10" cx="53.8" cy="58.5" r="1.6"/>
		<circle fill="#442147" stroke="#442147" stroke-width="2" stroke-miterlimit="10" cx="55.4" cy="51.1" r="2.1"/>
	</g>
	<g id="b15">
		<circle fill="#46214A" stroke="#46214A" stroke-width="2" stroke-miterlimit="10" cx="46.6" cy="48.9" r="2"/>
		<circle fill="#46214A" stroke="#46214A" stroke-width="2" stroke-miterlimit="10" cx="43.3" cy="57.4" r="2"/>
		<circle fill="#46214A" stroke="#46214A" stroke-width="2" stroke-miterlimit="10" cx="53.2" cy="40.9" r="2"/>
		<circle fill="#46214A" stroke="#46214A" stroke-width="2" stroke-miterlimit="10" cx="38.4" cy="51.2" r="1.7"/>
		<circle fill="#46214A" stroke="#46214A" stroke-width="2" stroke-miterlimit="10" cx="54.2" cy="59" r="1.7"/>
		<circle fill="#46214A" stroke="#46214A" stroke-width="2" stroke-miterlimit="10" cx="55.8" cy="51.2" r="2.3"/>
	</g>
	<g id="b16">
		<circle fill="#48214C" stroke="#48214C" stroke-width="2" stroke-miterlimit="10" cx="46.5" cy="48.8" r="2.1"/>
		<circle fill="#48214C" stroke="#48214C" stroke-width="2" stroke-miterlimit="10" cx="43" cy="57.9" r="2.1"/>
		<circle fill="#48214C" stroke="#48214C" stroke-width="2" stroke-miterlimit="10" cx="53.5" cy="40.4" r="2.1"/>
		<circle fill="#48214C" stroke="#48214C" stroke-width="2" stroke-miterlimit="10" cx="37.8" cy="51.2" r="1.8"/>
		<circle fill="#48214C" stroke="#48214C" stroke-width="2" stroke-miterlimit="10" cx="54.5" cy="59.6" r="1.8"/>
		<circle fill="#48214C" stroke="#48214C" stroke-width="2" stroke-miterlimit="10" cx="56.3" cy="51.2" r="2.4"/>
	</g>
	<g id="b17">
		<circle fill="#4B224F" stroke="#4B224F" stroke-width="2" stroke-miterlimit="10" cx="46.3" cy="48.7" r="2.2"/>
		<circle fill="#4B224F" stroke="#4B224F" stroke-width="2" stroke-miterlimit="10" cx="42.7" cy="58.3" r="2.2"/>
		<circle fill="#4B224F" stroke="#4B224F" stroke-width="2" stroke-miterlimit="10" cx="53.8" cy="39.8" r="2.2"/>
		<circle fill="#4B224F" stroke="#4B224F" stroke-width="2" stroke-miterlimit="10" cx="37.1" cy="51.3" r="1.9"/>
		<circle fill="#4B224F" stroke="#4B224F" stroke-width="2" stroke-miterlimit="10" cx="54.8" cy="60.2" r="1.9"/>
		<circle fill="#4B224F" stroke="#4B224F" stroke-width="2" stroke-miterlimit="10" cx="56.7" cy="51.3" r="2.6"/>
	</g>
	<g id="b18">
		<circle fill="#4D2252" stroke="#4D2252" stroke-width="2" stroke-miterlimit="10" cx="46.2" cy="48.7" r="2.3"/>
		<circle fill="#4D2252" stroke="#4D2252" stroke-width="2" stroke-miterlimit="10" cx="42.4" cy="58.8" r="2.3"/>
		<circle fill="#4D2252" stroke="#4D2252" stroke-width="2" stroke-miterlimit="10" cx="54.1" cy="39.2" r="2.3"/>
		<circle fill="#4D2252" stroke="#4D2252" stroke-width="2" stroke-miterlimit="10" cx="36.5" cy="51.4" r="2"/>
		<circle fill="#4D2252" stroke="#4D2252" stroke-width="2" stroke-miterlimit="10" cx="55.2" cy="60.7" r="2"/>
		<circle fill="#4D2252" stroke="#4D2252" stroke-width="2" stroke-miterlimit="10" cx="57.2" cy="51.4" r="2.7"/>
	</g>
	<g id="b19">
		<circle fill="#4F2255" stroke="#4F2255" stroke-width="2" stroke-miterlimit="10" cx="46.1" cy="48.6" r="2.5"/>
		<circle fill="#4F2255" stroke="#4F2255" stroke-width="2" stroke-miterlimit="10" cx="42" cy="59.2" r="2.5"/>
		<circle fill="#4F2255" stroke="#4F2255" stroke-width="2" stroke-miterlimit="10" cx="54.4" cy="38.7" r="2.5"/>
		<circle fill="#4F2255" stroke="#4F2255" stroke-width="2" stroke-miterlimit="10" cx="35.9" cy="51.4" r="2.1"/>
		<circle fill="#4F2255" stroke="#4F2255" stroke-width="2" stroke-miterlimit="10" cx="55.5" cy="61.3" r="2.1"/>
		<circle fill="#4F2255" stroke="#4F2255" stroke-width="2" stroke-miterlimit="10" cx="57.6" cy="51.4" r="2.8"/>
	</g>
	<g id="b20">
		<circle fill="#522257" stroke="#522257" stroke-width="2" stroke-miterlimit="10" cx="46" cy="48.5" r="2.6"/>
		<circle fill="#522257" stroke="#522257" stroke-width="2" stroke-miterlimit="10" cx="41.7" cy="59.7" r="2.6"/>
		<circle fill="#522257" stroke="#522257" stroke-width="2" stroke-miterlimit="10" cx="54.7" cy="38.1" r="2.6"/>
		<circle fill="#522257" stroke="#522257" stroke-width="2" stroke-miterlimit="10" cx="35.2" cy="51.5" r="2.2"/>
		<circle fill="#522257" stroke="#522257" stroke-width="2" stroke-miterlimit="10" cx="55.9" cy="61.9" r="2.2"/>
		<circle fill="#522257" stroke="#522257" stroke-width="2" stroke-miterlimit="10" cx="58.1" cy="51.5" r="3"/>
	</g>
	<g id="b21">
		<circle fill="#54225A" stroke="#54225A" stroke-width="2" stroke-miterlimit="10" cx="45.8" cy="48.5" r="2.7"/>
		<circle fill="#54225A" stroke="#54225A" stroke-width="2" stroke-miterlimit="10" cx="41.4" cy="60.2" r="2.7"/>
		<circle fill="#54225A" stroke="#54225A" stroke-width="2" stroke-miterlimit="10" cx="55" cy="37.5" r="2.7"/>
		<circle fill="#54225A" stroke="#54225A" stroke-width="2" stroke-miterlimit="10" cx="34.6" cy="51.6" r="2.3"/>
		<circle fill="#54225A" stroke="#54225A" stroke-width="2" stroke-miterlimit="10" cx="56.2" cy="62.4" r="2.3"/>
		<circle fill="#54225A" stroke="#54225A" stroke-width="2" stroke-miterlimit="10" cx="58.5" cy="51.6" r="3.1"/>
	</g>
	<g id="b22">
		<circle fill="#56225D" stroke="#56225D" stroke-width="2" stroke-miterlimit="10" cx="45.7" cy="48.4" r="2.8"/>
		<circle fill="#56225D" stroke="#56225D" stroke-width="2" stroke-miterlimit="10" cx="41" cy="60.6" r="2.8"/>
		<circle fill="#56225D" stroke="#56225D" stroke-width="2" stroke-miterlimit="10" cx="55.3" cy="37" r="2.8"/>
		<circle fill="#56225D" stroke="#56225D" stroke-width="2" stroke-miterlimit="10" cx="34" cy="51.7" r="2.4"/>
		<circle fill="#56225D" stroke="#56225D" stroke-width="2" stroke-miterlimit="10" cx="56.6" cy="63" r="2.4"/>
		<circle fill="#56225D" stroke="#56225D" stroke-width="2" stroke-miterlimit="10" cx="59" cy="51.7" r="3.3"/>
	</g>
	<g id="b23">
		<circle fill="#592360" stroke="#592360" stroke-width="2" stroke-miterlimit="10" cx="45.6" cy="48.3" r="3"/>
		<circle fill="#592360" stroke="#592360" stroke-width="2" stroke-miterlimit="10" cx="40.7" cy="61.1" r="3"/>
		<circle fill="#592360" stroke="#592360" stroke-width="2" stroke-miterlimit="10" cx="55.6" cy="36.4" r="3"/>
		<circle fill="#592360" stroke="#592360" stroke-width="2" stroke-miterlimit="10" cx="33.3" cy="51.7" r="2.5"/>
		<circle fill="#592360" stroke="#592360" stroke-width="2" stroke-miterlimit="10" cx="56.9" cy="63.6" r="2.5"/>
		<circle fill="#592360" stroke="#592360" stroke-width="2" stroke-miterlimit="10" cx="59.4" cy="51.7" r="3.4"/>
	</g>
	<g id="b24">
		<circle fill="#5B2362" stroke="#5B2362" stroke-width="2" stroke-miterlimit="10" cx="45.5" cy="48.3" r="3.1"/>
		<circle fill="#5B2362" stroke="#5B2362" stroke-width="2" stroke-miterlimit="10" cx="40.4" cy="61.5" r="3.1"/>
		<circle fill="#5B2362" stroke="#5B2362" stroke-width="2" stroke-miterlimit="10" cx="55.9" cy="35.8" r="3.1"/>
		<circle fill="#5B2362" stroke="#5B2362" stroke-width="2" stroke-miterlimit="10" cx="32.7" cy="51.8" r="2.6"/>
		<circle fill="#5B2362" stroke="#5B2362" stroke-width="2" stroke-miterlimit="10" cx="57.3" cy="64.1" r="2.6"/>
		<circle fill="#5B2362" stroke="#5B2362" stroke-width="2" stroke-miterlimit="10" cx="59.9" cy="51.8" r="3.5"/>
	</g>
	<g id="b25">
		<circle fill="#5D2365" stroke="#5D2365" stroke-width="2" stroke-miterlimit="10" cx="45.3" cy="48.2" r="3.2"/>
		<circle fill="#5D2365" stroke="#5D2365" stroke-width="2" stroke-miterlimit="10" cx="40.1" cy="62" r="3.2"/>
		<circle fill="#5D2365" stroke="#5D2365" stroke-width="2" stroke-miterlimit="10" cx="56.1" cy="35.3" r="3.2"/>
		<circle fill="#5D2365" stroke="#5D2365" stroke-width="2" stroke-miterlimit="10" cx="32.1" cy="51.9" r="2.7"/>
		<circle fill="#5D2365" stroke="#5D2365" stroke-width="2" stroke-miterlimit="10" cx="57.6" cy="64.7" r="2.7"/>
		<circle fill="#5D2365" stroke="#5D2365" stroke-width="2" stroke-miterlimit="10" cx="60.3" cy="51.9" r="3.7"/>
	</g>
	<g id="b26">
		<circle fill="#5F2368" stroke="#5F2368" stroke-width="2" stroke-miterlimit="10" cx="45.2" cy="48.1" r="3.3"/>
		<circle fill="#5F2368" stroke="#5F2368" stroke-width="2" stroke-miterlimit="10" cx="39.7" cy="62.5" r="3.3"/>
		<circle fill="#5F2368" stroke="#5F2368" stroke-width="2" stroke-miterlimit="10" cx="56.4" cy="34.7" r="3.3"/>
		<circle fill="#5F2368" stroke="#5F2368" stroke-width="2" stroke-miterlimit="10" cx="31.4" cy="51.9" r="2.8"/>
		<circle fill="#5F2368" stroke="#5F2368" stroke-width="2" stroke-miterlimit="10" cx="58" cy="65.3" r="2.8"/>
		<circle fill="#5F2368" stroke="#5F2368" stroke-width="2" stroke-miterlimit="10" cx="60.8" cy="51.9" r="3.8"/>
	</g>
	<g id="b27">
		<circle fill="#62236B" stroke="#62236B" stroke-width="2" stroke-miterlimit="10" cx="45.1" cy="48" r="3.5"/>
		<circle fill="#62236B" stroke="#62236B" stroke-width="2" stroke-miterlimit="10" cx="39.4" cy="62.9" r="3.5"/>
		<circle fill="#62236B" stroke="#62236B" stroke-width="2" stroke-miterlimit="10" cx="56.7" cy="34.1" r="3.5"/>
		<circle fill="#62236B" stroke="#62236B" stroke-width="2" stroke-miterlimit="10" cx="30.8" cy="52" r="2.9"/>
		<circle fill="#62236B" stroke="#62236B" stroke-width="2" stroke-miterlimit="10" cx="58.3" cy="65.8" r="2.9"/>
		<circle fill="#62236B" stroke="#62236B" stroke-width="2" stroke-miterlimit="10" cx="61.2" cy="52" r="4"/>
	</g>
	<g id="b28">
		<circle fill="#64236E" stroke="#64236E" stroke-width="2" stroke-miterlimit="10" cx="45" cy="48" r="3.6"/>
		<circle fill="#64236E" stroke="#64236E" stroke-width="2" stroke-miterlimit="10" cx="39.1" cy="63.4" r="3.6"/>
		<circle fill="#64236E" stroke="#64236E" stroke-width="2" stroke-miterlimit="10" cx="57" cy="33.6" r="3.6"/>
		<circle fill="#64236E" stroke="#64236E" stroke-width="2" stroke-miterlimit="10" cx="30.2" cy="52.1" r="3"/>
		<circle fill="#64236E" stroke="#64236E" stroke-width="2" stroke-miterlimit="10" cx="58.7" cy="66.4" r="3"/>
		<circle fill="#64236E" stroke="#64236E" stroke-width="2" stroke-miterlimit="10" cx="61.7" cy="52.1" r="4.1"/>
	</g>
	<g id="b29">
		<circle fill="#662370" stroke="#662370" stroke-width="2" stroke-miterlimit="10" cx="44.8" cy="47.9" r="3.7"/>
		<circle fill="#662370" stroke="#662370" stroke-width="2" stroke-miterlimit="10" cx="38.8" cy="63.8" r="3.7"/>
		<circle fill="#662370" stroke="#662370" stroke-width="2" stroke-miterlimit="10" cx="57.3" cy="33" r="3.7"/>
		<circle fill="#662370" stroke="#662370" stroke-width="2" stroke-miterlimit="10" cx="29.5" cy="52.2" r="3.1"/>
		<circle fill="#662370" stroke="#662370" stroke-width="2" stroke-miterlimit="10" cx="59" cy="66.9" r="3.1"/>
		<circle fill="#662370" stroke="#662370" stroke-width="2" stroke-miterlimit="10" cx="62.1" cy="52.2" r="4.3"/>
	</g>
	<g id="b30">
		<circle fill="#692473" stroke="#692473" stroke-width="2" stroke-miterlimit="10" cx="44.7" cy="47.8" r="3.8"/>
		<circle fill="#692473" stroke="#692473" stroke-width="2" stroke-miterlimit="10" cx="38.4" cy="64.3" r="3.8"/>
		<circle fill="#692473" stroke="#692473" stroke-width="2" stroke-miterlimit="10" cx="57.6" cy="32.4" r="3.8"/>
		<circle fill="#692473" stroke="#692473" stroke-width="2" stroke-miterlimit="10" cx="28.9" cy="52.2" r="3.2"/>
		<circle fill="#692473" stroke="#692473" stroke-width="2" stroke-miterlimit="10" cx="59.4" cy="67.5" r="3.2"/>
		<circle fill="#692473" stroke="#692473" stroke-width="2" stroke-miterlimit="10" cx="62.6" cy="52.2" r="4.4"/>
	</g>
	<g id="b31">
		<circle fill="#6B2476" stroke="#6B2476" stroke-width="2" stroke-miterlimit="10" cx="44.6" cy="47.8" r="3.9"/>
		<circle fill="#6B2476" stroke="#6B2476" stroke-width="2" stroke-miterlimit="10" cx="38.1" cy="64.8" r="3.9"/>
		<circle fill="#6B2476" stroke="#6B2476" stroke-width="2" stroke-miterlimit="10" cx="57.9" cy="31.9" r="3.9"/>
		<circle fill="#6B2476" stroke="#6B2476" stroke-width="2" stroke-miterlimit="10" cx="28.3" cy="52.3" r="3.3"/>
		<circle fill="#6B2476" stroke="#6B2476" stroke-width="2" stroke-miterlimit="10" cx="59.7" cy="68.1" r="3.3"/>
		<circle fill="#6B2476" stroke="#6B2476" stroke-width="2" stroke-miterlimit="10" cx="63" cy="52.3" r="4.5"/>
	</g>
	<g id="b32">
		<circle fill="#6D2479" stroke="#6D2479" stroke-width="2" stroke-miterlimit="10" cx="44.5" cy="47.7" r="4.1"/>
		<circle fill="#6D2479" stroke="#6D2479" stroke-width="2" stroke-miterlimit="10" cx="37.8" cy="65.2" r="4.1"/>
		<circle fill="#6D2479" stroke="#6D2479" stroke-width="2" stroke-miterlimit="10" cx="58.2" cy="31.3" r="4.1"/>
		<circle fill="#6D2479" stroke="#6D2479" stroke-width="2" stroke-miterlimit="10" cx="27.6" cy="52.4" r="3.4"/>
		<circle fill="#6D2479" stroke="#6D2479" stroke-width="2" stroke-miterlimit="10" cx="60.1" cy="68.6" r="3.4"/>
		<circle fill="#6D2479" stroke="#6D2479" stroke-width="2" stroke-miterlimit="10" cx="63.5" cy="52.4" r="4.7"/>
	</g>
	<g id="b33">
		<circle fill="#70247B" stroke="#70247B" stroke-width="2" stroke-miterlimit="10" cx="44.3" cy="47.6" r="4.2"/>
		<circle fill="#70247B" stroke="#70247B" stroke-width="2" stroke-miterlimit="10" cx="37.5" cy="65.7" r="4.2"/>
		<circle fill="#70247B" stroke="#70247B" stroke-width="2" stroke-miterlimit="10" cx="58.5" cy="30.7" r="4.2"/>
		<circle fill="#70247B" stroke="#70247B" stroke-width="2" stroke-miterlimit="10" cx="27" cy="52.5" r="3.5"/>
		<circle fill="#70247B" stroke="#70247B" stroke-width="2" stroke-miterlimit="10" cx="60.4" cy="69.2" r="3.5"/>
		<circle fill="#70247B" stroke="#70247B" stroke-width="2" stroke-miterlimit="10" cx="63.9" cy="52.5" r="4.8"/>
	</g>
	<g id="b34">
		<circle fill="#72247E" stroke="#72247E" stroke-width="2" stroke-miterlimit="10" cx="44.2" cy="47.6" r="4.3"/>
		<circle fill="#72247E" stroke="#72247E" stroke-width="2" stroke-miterlimit="10" cx="37.1" cy="66.1" r="4.3"/>
		<circle fill="#72247E" stroke="#72247E" stroke-width="2" stroke-miterlimit="10" cx="58.8" cy="30.2" r="4.3"/>
		<circle fill="#72247E" stroke="#72247E" stroke-width="2" stroke-miterlimit="10" cx="26.4" cy="52.5" r="3.6"/>
		<circle fill="#72247E" stroke="#72247E" stroke-width="2" stroke-miterlimit="10" cx="60.8" cy="69.8" r="3.6"/>
		<circle fill="#72247E" stroke="#72247E" stroke-width="2" stroke-miterlimit="10" cx="64.4" cy="52.5" r="5"/>
	</g>
	<g id="b35">
		<circle fill="#742481" stroke="#742481" stroke-width="2" stroke-miterlimit="10" cx="44.1" cy="47.5" r="4.4"/>
		<circle fill="#742481" stroke="#742481" stroke-width="2" stroke-miterlimit="10" cx="36.8" cy="66.6" r="4.4"/>
		<circle fill="#742481" stroke="#742481" stroke-width="2" stroke-miterlimit="10" cx="59.1" cy="29.6" r="4.4"/>
		<circle fill="#742481" stroke="#742481" stroke-width="2" stroke-miterlimit="10" cx="25.7" cy="52.6" r="3.7"/>
		<circle fill="#742481" stroke="#742481" stroke-width="2" stroke-miterlimit="10" cx="61.1" cy="70.3" r="3.7"/>
		<circle fill="#742481" stroke="#742481" stroke-width="2" stroke-miterlimit="10" cx="64.8" cy="52.6" r="5.1"/>
	</g>
	<g id="b36">
		<circle fill="#772584" stroke="#772584" stroke-width="2" stroke-miterlimit="10" cx="44" cy="47.4" r="4.6"/>
		<circle fill="#772584" stroke="#772584" stroke-width="2" stroke-miterlimit="10" cx="36.5" cy="67.1" r="4.6"/>
		<circle fill="#772584" stroke="#772584" stroke-width="2" stroke-miterlimit="10" cx="59.3" cy="29" r="4.6"/>
		<circle fill="#772584" stroke="#772584" stroke-width="2" stroke-miterlimit="10" cx="25.1" cy="52.7" r="3.8"/>
		<circle fill="#772584" stroke="#772584" stroke-width="2" stroke-miterlimit="10" cx="61.5" cy="70.9" r="3.8"/>
		<circle fill="#772584" stroke="#772584" stroke-width="2" stroke-miterlimit="10" cx="65.3" cy="52.7" r="5.3"/>
	</g>
	<g id="b37">
		<circle fill="#792586" stroke="#792586" stroke-width="2" stroke-miterlimit="10" cx="43.8" cy="47.3" r="4.7"/>
		<circle fill="#792586" stroke="#792586" stroke-width="2" stroke-miterlimit="10" cx="36.1" cy="67.5" r="4.7"/>
		<circle fill="#792586" stroke="#792586" stroke-width="2" stroke-miterlimit="10" cx="59.6" cy="28.5" r="4.7"/>
		<circle fill="#792586" stroke="#792586" stroke-width="2" stroke-miterlimit="10" cx="24.5" cy="52.7" r="3.9"/>
		<circle fill="#792586" stroke="#792586" stroke-width="2" stroke-miterlimit="10" cx="61.8" cy="71.5" r="3.9"/>
		<circle fill="#792586" stroke="#792586" stroke-width="2" stroke-miterlimit="10" cx="65.7" cy="52.7" r="5.4"/>
	</g>
	<g id="b38">
		<circle fill="#7B2589" stroke="#7B2589" stroke-width="2" stroke-miterlimit="10" cx="43.7" cy="47.3" r="4.8"/>
		<circle fill="#7B2589" stroke="#7B2589" stroke-width="2" stroke-miterlimit="10" cx="35.8" cy="68" r="4.8"/>
		<circle fill="#7B2589" stroke="#7B2589" stroke-width="2" stroke-miterlimit="10" cx="59.9" cy="27.9" r="4.8"/>
		<circle fill="#7B2589" stroke="#7B2589" stroke-width="2" stroke-miterlimit="10" cx="23.8" cy="52.8" r="4"/>
		<circle fill="#7B2589" stroke="#7B2589" stroke-width="2" stroke-miterlimit="10" cx="62.2" cy="72" r="4"/>
		<circle fill="#7B2589" stroke="#7B2589" stroke-width="2" stroke-miterlimit="10" cx="66.2" cy="52.8" r="5.5"/>
	</g>
	<g id="b39">
		<circle fill="#7E258C" stroke="#7E258C" stroke-width="2" stroke-miterlimit="10" cx="43.6" cy="47.2" r="4.9"/>
		<circle fill="#7E258C" stroke="#7E258C" stroke-width="2" stroke-miterlimit="10" cx="35.5" cy="68.4" r="4.9"/>
		<circle fill="#7E258C" stroke="#7E258C" stroke-width="2" stroke-miterlimit="10" cx="60.2" cy="27.4" r="4.9"/>
		<circle fill="#7E258C" stroke="#7E258C" stroke-width="2" stroke-miterlimit="10" cx="23.2" cy="52.9" r="4.1"/>
		<circle fill="#7E258C" stroke="#7E258C" stroke-width="2" stroke-miterlimit="10" cx="62.5" cy="72.6" r="4.1"/>
		<circle fill="#7E258C" stroke="#7E258C" stroke-width="2" stroke-miterlimit="10" cx="66.6" cy="52.9" r="5.7"/>
	</g>
	<g id="b40">
		<circle fill="#80258F" stroke="#80258F" stroke-width="2" stroke-miterlimit="10" cx="43.5" cy="47.1" r="5.1"/>
		<circle fill="#80258F" stroke="#80258F" stroke-width="2" stroke-miterlimit="10" cx="35.2" cy="68.9" r="5.1"/>
		<circle fill="#80258F" stroke="#80258F" stroke-width="2" stroke-miterlimit="10" cx="60.5" cy="26.8" r="5.1"/>
		<circle fill="#80258F" stroke="#80258F" stroke-width="2" stroke-miterlimit="10" cx="22.6" cy="53" r="4.2"/>
		<circle fill="#80258F" stroke="#80258F" stroke-width="2" stroke-miterlimit="10" cx="62.8" cy="73.1" r="4.2"/>
		<circle fill="#80258F" stroke="#80258F" stroke-width="2" stroke-miterlimit="10" cx="67.1" cy="53" r="5.8"/>
	</g>
	<g id="b41">
		<circle fill="#822592" stroke="#822592" stroke-width="2" stroke-miterlimit="10" cx="43.3" cy="47.1" r="5.2"/>
		<circle fill="#822592" stroke="#822592" stroke-width="2" stroke-miterlimit="10" cx="34.8" cy="69.4" r="5.2"/>
		<circle fill="#822592" stroke="#822592" stroke-width="2" stroke-miterlimit="10" cx="60.8" cy="26.2" r="5.2"/>
		<circle fill="#822592" stroke="#822592" stroke-width="2" stroke-miterlimit="10" cx="21.9" cy="53" r="4.3"/>
		<circle fill="#822592" stroke="#822592" stroke-width="2" stroke-miterlimit="10" cx="63.2" cy="73.7" r="4.3"/>
		<circle fill="#822592" stroke="#822592" stroke-width="2" stroke-miterlimit="10" cx="67.5" cy="53" r="6"/>
	</g>
	<g id="b42">
		<circle fill="#852594" stroke="#852594" stroke-width="2" stroke-miterlimit="10" cx="43.2" cy="47" r="5.3"/>
		<circle fill="#852594" stroke="#852594" stroke-width="2" stroke-miterlimit="10" cx="34.5" cy="69.8" r="5.3"/>
		<circle fill="#852594" stroke="#852594" stroke-width="2" stroke-miterlimit="10" cx="61.1" cy="25.7" r="5.3"/>
		<circle fill="#852594" stroke="#852594" stroke-width="2" stroke-miterlimit="10" cx="21.3" cy="53.1" r="4.4"/>
		<circle fill="#852594" stroke="#852594" stroke-width="2" stroke-miterlimit="10" cx="63.5" cy="74.3" r="4.4"/>
		<circle fill="#852594" stroke="#852594" stroke-width="2" stroke-miterlimit="10" cx="68" cy="53.1" r="6.1"/>
	</g>
	<g id="b43">
		<circle fill="#872697" stroke="#872697" stroke-width="2" stroke-miterlimit="10" cx="43.1" cy="46.9" r="5.4"/>
		<circle fill="#872697" stroke="#872697" stroke-width="2" stroke-miterlimit="10" cx="34.2" cy="70.3" r="5.4"/>
		<circle fill="#872697" stroke="#872697" stroke-width="2" stroke-miterlimit="10" cx="61.4" cy="25.1" r="5.4"/>
		<circle fill="#872697" stroke="#872697" stroke-width="2" stroke-miterlimit="10" cx="20.7" cy="53.2" r="4.5"/>
		<circle fill="#872697" stroke="#872697" stroke-width="2" stroke-miterlimit="10" cx="63.9" cy="74.8" r="4.5"/>
		<circle fill="#872697" stroke="#872697" stroke-width="2" stroke-miterlimit="10" cx="68.4" cy="53.2" r="6.2"/>
	</g>
	<g id="b44">
		<circle fill="#89269A" stroke="#89269A" stroke-width="2" stroke-miterlimit="10" cx="43" cy="46.9" r="5.6"/>
		<circle fill="#89269A" stroke="#89269A" stroke-width="2" stroke-miterlimit="10" cx="33.9" cy="70.7" r="5.6"/>
		<circle fill="#89269A" stroke="#89269A" stroke-width="2" stroke-miterlimit="10" cx="61.7" cy="24.5" r="5.6"/>
		<circle fill="#89269A" stroke="#89269A" stroke-width="2" stroke-miterlimit="10" cx="20" cy="53.2" r="4.7"/>
		<circle fill="#89269A" stroke="#89269A" stroke-width="2" stroke-miterlimit="10" cx="64.2" cy="75.4" r="4.7"/>
		<circle fill="#89269A" stroke="#89269A" stroke-width="2" stroke-miterlimit="10" cx="68.9" cy="53.2" r="6.4"/>
	</g>
	<g id="b45">
		<circle fill="#8C269D" stroke="#8C269D" stroke-width="2" stroke-miterlimit="10" cx="42.8" cy="46.8" r="5.7"/>
		<circle fill="#8C269D" stroke="#8C269D" stroke-width="2" stroke-miterlimit="10" cx="33.5" cy="71.2" r="5.7"/>
		<circle fill="#8C269D" stroke="#8C269D" stroke-width="2" stroke-miterlimit="10" cx="62" cy="24" r="5.7"/>
		<circle fill="#8C269D" stroke="#8C269D" stroke-width="2" stroke-miterlimit="10" cx="19.4" cy="53.3" r="4.8"/>
		<circle fill="#8C269D" stroke="#8C269D" stroke-width="2" stroke-miterlimit="10" cx="64.6" cy="76" r="4.8"/>
		<circle fill="#8C269D" stroke="#8C269D" stroke-width="2" stroke-miterlimit="10" cx="69.3" cy="53.3" r="6.5"/>
	</g>
	<g id="b46">
		<circle fill="#8E269F" stroke="#8E269F" stroke-width="2" stroke-miterlimit="10" cx="42.7" cy="46.7" r="5.8"/>
		<circle fill="#8E269F" stroke="#8E269F" stroke-width="2" stroke-miterlimit="10" cx="33.2" cy="71.7" r="5.8"/>
		<circle fill="#8E269F" stroke="#8E269F" stroke-width="2" stroke-miterlimit="10" cx="62.3" cy="23.4" r="5.8"/>
		<circle fill="#8E269F" stroke="#8E269F" stroke-width="2" stroke-miterlimit="10" cx="18.7" cy="53.4" r="4.9"/>
		<circle fill="#8E269F" stroke="#8E269F" stroke-width="2" stroke-miterlimit="10" cx="64.9" cy="76.5" r="4.9"/>
		<circle fill="#8E269F" stroke="#8E269F" stroke-width="2" stroke-miterlimit="10" cx="69.8" cy="53.4" r="6.7"/>
	</g>
	<g id="b47">
		<circle fill="#9026A2" stroke="#9026A2" stroke-width="2" stroke-miterlimit="10" cx="42.6" cy="46.6" r="5.9"/>
		<circle fill="#9026A2" stroke="#9026A2" stroke-width="2" stroke-miterlimit="10" cx="32.9" cy="72.1" r="5.9"/>
		<circle fill="#9026A2" stroke="#9026A2" stroke-width="2" stroke-miterlimit="10" cx="62.5" cy="22.8" r="5.9"/>
		<circle fill="#9026A2" stroke="#9026A2" stroke-width="2" stroke-miterlimit="10" cx="18.1" cy="53.5" r="5"/>
		<circle fill="#9026A2" stroke="#9026A2" stroke-width="2" stroke-miterlimit="10" cx="65.3" cy="77.1" r="5"/>
		<circle fill="#9026A2" stroke="#9026A2" stroke-width="2" stroke-miterlimit="10" cx="70.2" cy="53.5" r="6.8"/>
	</g>
	<g id="b48">
		<circle fill="#9326A5" stroke="#9326A5" stroke-width="2" stroke-miterlimit="10" cx="42.5" cy="46.6" r="6"/>
		<circle fill="#9326A5" stroke="#9326A5" stroke-width="2" stroke-miterlimit="10" cx="32.5" cy="72.6" r="6"/>
		<circle fill="#9326A5" stroke="#9326A5" stroke-width="2" stroke-miterlimit="10" cx="62.8" cy="22.3" r="6"/>
		<circle fill="#9326A5" stroke="#9326A5" stroke-width="2" stroke-miterlimit="10" cx="17.5" cy="53.5" r="5.1"/>
		<circle fill="#9326A5" stroke="#9326A5" stroke-width="2" stroke-miterlimit="10" cx="65.6" cy="77.7" r="5.1"/>
		<circle fill="#9326A5" stroke="#9326A5" stroke-width="2" stroke-miterlimit="10" cx="70.7" cy="53.5" r="7"/>
	</g>
	<g id="b49">
		<circle fill="#9527A8" stroke="#9527A8" stroke-width="2" stroke-miterlimit="10" cx="42.3" cy="46.5" r="6.2"/>
		<circle fill="#9527A8" stroke="#9527A8" stroke-width="2" stroke-miterlimit="10" cx="32.2" cy="73.1" r="6.2"/>
		<circle fill="#9527A8" stroke="#9527A8" stroke-width="2" stroke-miterlimit="10" cx="63.1" cy="21.7" r="6.2"/>
		<circle fill="#9527A8" stroke="#9527A8" stroke-width="2" stroke-miterlimit="10" cx="16.8" cy="53.6" r="5.2"/>
		<circle fill="#9527A8" stroke="#9527A8" stroke-width="2" stroke-miterlimit="10" cx="66" cy="78.2" r="5.2"/>
		<circle fill="#9527A8" stroke="#9527A8" stroke-width="2" stroke-miterlimit="10" cx="71.1" cy="53.6" r="7.1"/>
	</g>
	<g id="b50">
		<circle fill="#9727AA" stroke="#9727AA" stroke-width="2" stroke-miterlimit="10" cx="42.2" cy="46.4" r="6.3"/>
		<circle fill="#9727AA" stroke="#9727AA" stroke-width="2" stroke-miterlimit="10" cx="31.9" cy="73.5" r="6.3"/>
		<circle fill="#9727AA" stroke="#9727AA" stroke-width="2" stroke-miterlimit="10" cx="63.4" cy="21.1" r="6.3"/>
		<circle fill="#9727AA" stroke="#9727AA" stroke-width="2" stroke-miterlimit="10" cx="16.2" cy="53.7" r="5.3"/>
		<circle fill="#9727AA" stroke="#9727AA" stroke-width="2" stroke-miterlimit="10" cx="66.3" cy="78.8" r="5.3"/>
		<circle fill="#9727AA" stroke="#9727AA" stroke-width="2" stroke-miterlimit="10" cx="71.6" cy="53.7" r="7.2"/>
	</g>
	<g id="b51">
		<circle fill="#9A27AD" stroke="#9A27AD" stroke-width="2" stroke-miterlimit="10" cx="42.1" cy="46.4" r="6.4"/>
		<circle fill="#9A27AD" stroke="#9A27AD" stroke-width="2" stroke-miterlimit="10" cx="31.6" cy="74" r="6.4"/>
		<circle fill="#9A27AD" stroke="#9A27AD" stroke-width="2" stroke-miterlimit="10" cx="63.7" cy="20.6" r="6.4"/>
		<circle fill="#9A27AD" stroke="#9A27AD" stroke-width="2" stroke-miterlimit="10" cx="15.6" cy="53.7" r="5.4"/>
		<circle fill="#9A27AD" stroke="#9A27AD" stroke-width="2" stroke-miterlimit="10" cx="66.7" cy="79.3" r="5.4"/>
		<circle fill="#9A27AD" stroke="#9A27AD" stroke-width="2" stroke-miterlimit="10" cx="72" cy="53.7" r="7.4"/>
	</g>
	<g id="b52">
		<circle fill="#9C27B0" stroke="#9C27B0" stroke-width="2" stroke-miterlimit="10" cx="42" cy="46.3" r="6.5"/>
		<circle fill="#9C27B0" stroke="#9C27B0" stroke-width="2" stroke-miterlimit="10" cx="31.2" cy="74.4" r="6.5"/>
		<circle fill="#9C27B0" stroke="#9C27B0" stroke-width="2" stroke-miterlimit="10" cx="64" cy="20" r="6.5"/>
		<circle fill="#9C27B0" stroke="#9C27B0" stroke-width="2" stroke-miterlimit="10" cx="14.9" cy="53.8" r="5.5"/>
		<circle fill="#9C27B0" stroke="#9C27B0" stroke-width="2" stroke-miterlimit="10" cx="67" cy="79.9" r="5.5"/>
		<circle fill="#9C27B0" stroke="#9C27B0" stroke-width="2" stroke-miterlimit="10" cx="72.5" cy="53.8" r="7.5"/>
	</g>
</g>
</svg>
