<?xml version="1.0" encoding="utf-8"?>
<!-- Generator: Adobe Illustrator 17.1.0, SVG Export Plug-In . SVG Version: 6.00 Build 0)  -->
<!DOCTYPE svg PUBLIC "-//W3C//DTD SVG 1.1//EN" "http://www.w3.org/Graphics/SVG/1.1/DTD/svg11.dtd">
<svg version="1.1" id="Layer_1" xmlns="http://www.w3.org/2000/svg" xmlns:xlink="http://www.w3.org/1999/xlink" x="0px" y="0px"
	 viewBox="0 0 250 250" enable-background="new 0 0 250 250" xml:space="preserve">
<circle fill="#FFC107" cx="125" cy="125" r="125"/>
<g>
	<polygon fill="#08B3FF" points="157.9,64.8 158,46.7 140.3,50.3 84,118.5 101.6,133 	"/>
	
		<rect x="65.6" y="124.9" transform="matrix(0.7715 0.6362 -0.6362 0.7715 102.5958 -28.0364)" fill="#937F4C" width="49.4" height="7.9"/>
	
		<rect x="65" y="131.2" transform="matrix(-0.6362 0.7715 -0.7715 -0.6362 241.3508 163.9941)" fill="#937F4C" width="34" height="15.4"/>
</g>
<g>
	<polygon fill="#AFAFAF" points="185.7,119.9 185.9,101.8 168.1,105.4 111.9,173.6 129.5,188.1 	"/>
	
		<rect x="93.5" y="180" transform="matrix(0.7715 0.6362 -0.6362 0.7715 144.0178 -33.1649)" fill="#937F4C" width="49.4" height="7.9"/>
	
		<rect x="92.9" y="186.3" transform="matrix(-0.6362 0.7715 -0.7715 -0.6362 329.432 232.6676)" fill="#937F4C" width="34" height="15.4"/>
</g>
</svg>
